<svg xmlns="http://www.w3.org/2000/svg" viewBox="0 0 800 460" width="800" height="460">
  <rect width="800" height="460" fill="#1e2433" rx="12"/>
  <defs><marker id="arr" markerWidth="10" markerHeight="7" refX="9" refY="3.5" orient="auto"><polygon points="0 0, 10 3.5, 0 7" fill="#94a3b8"/></marker><marker id="arrB" markerWidth="10" markerHeight="7" refX="9" refY="3.5" orient="auto"><polygon points="0 0, 10 3.5, 0 7" fill="#4a9eff"/></marker></defs><text x="400" y="30" font-size="20" fill="#e2e8f0" text-anchor="middle" font-weight="bold" font-family="monospace">Условная вероятность</text><rect x="60" y="75" width="680" height="200" fill="#252d3e" stroke="#94a3b8" stroke-width="1.5" rx="8"/><rect x="60" y="75" width="680" height="200" fill="#252d3e" stroke="#94a3b8" stroke-width="1.5" rx="8"/><text x="400" y="100" font-size="13" fill="#94a3b8" text-anchor="middle" font-weight="normal" font-family="monospace">Ω — полное пространство исходов</text><circle cx="350" cy="185" r="85" fill="#4a9eff33" stroke="#4a9eff" stroke-width="2"/><circle cx="430" cy="185" r="85" fill="#a78bfa33" stroke="#a78bfa" stroke-width="2"/><text x="310" y="188" font-size="22" fill="#4a9eff" text-anchor="middle" font-weight="bold" font-family="monospace">A</text><text x="470" y="188" font-size="22" fill="#a78bfa" text-anchor="middle" font-weight="bold" font-family="monospace">B</text><text x="390" y="195" font-size="14" fill="#34d399" text-anchor="middle" font-weight="bold" font-family="monospace">A∩B</text><text x="400" y="305" font-size="14" fill="#2dd4bf" text-anchor="middle" font-weight="normal" font-family="monospace">↓ «Дано, что произошло B» — сужаем пространство до B</text><circle cx="400" cy="390" r="60" fill="#a78bfa44" stroke="#a78bfa" stroke-width="2.5"/><path d="M 370 390 a 30 30 0 0 1 60 0" fill="#34d39988" stroke="#34d399" stroke-width="2"/><text x="400" y="395" font-size="13" fill="#34d399" text-anchor="middle" font-weight="bold" font-family="monospace">A∩B</text><rect x="500" y="330" width="250" height="80" fill="#252d3e" stroke="#374151" stroke-width="1.5" rx="8"/><text x="625" y="360" font-size="15" fill="#4a9eff" text-anchor="middle" font-weight="bold" font-family="monospace">P(A|B) = P(A∩B)</text><line x1="555" y1="370" x2="735" y2="370" stroke="#4a9eff" stroke-width="1.5"/><text x="625" y="392" font-size="15" fill="#4a9eff" text-anchor="middle" font-weight="bold" font-family="monospace">          P(B)</text><text x="625" y="415" font-size="11" fill="#94a3b8" text-anchor="middle" font-weight="normal" font-family="monospace">«Вероятность A при условии B»</text>
</svg>