<svg xmlns="http://www.w3.org/2000/svg" viewBox="0 0 800 460" width="800" height="460">
  <rect width="800" height="460" fill="#1e2433" rx="12"/>
  <defs><marker id="arr" markerWidth="10" markerHeight="7" refX="9" refY="3.5" orient="auto"><polygon points="0 0, 10 3.5, 0 7" fill="#94a3b8"/></marker><marker id="arrB" markerWidth="10" markerHeight="7" refX="9" refY="3.5" orient="auto"><polygon points="0 0, 10 3.5, 0 7" fill="#4a9eff"/></marker></defs><text x="400" y="30" font-size="20" fill="#e2e8f0" text-anchor="middle" font-weight="bold" font-family="monospace">Отклонения от среднего</text><line x1="60" y1="220" x2="740" y2="220" stroke="#94a3b8" stroke-width="2"/><line x1="135" y1="214" x2="135" y2="226" stroke="#94a3b8" stroke-width="1.5"/><text x="135" y="242" font-size="13" fill="#94a3b8" text-anchor="middle" font-weight="normal" font-family="monospace">1</text><line x1="210" y1="214" x2="210" y2="226" stroke="#94a3b8" stroke-width="1.5"/><text x="210" y="242" font-size="13" fill="#94a3b8" text-anchor="middle" font-weight="normal" font-family="monospace">2</text><line x1="285" y1="214" x2="285" y2="226" stroke="#94a3b8" stroke-width="1.5"/><text x="285" y="242" font-size="13" fill="#94a3b8" text-anchor="middle" font-weight="normal" font-family="monospace">3</text><line x1="360" y1="214" x2="360" y2="226" stroke="#94a3b8" stroke-width="1.5"/><text x="360" y="242" font-size="13" fill="#94a3b8" text-anchor="middle" font-weight="normal" font-family="monospace">4</text><line x1="435" y1="214" x2="435" y2="226" stroke="#94a3b8" stroke-width="1.5"/><text x="435" y="242" font-size="13" fill="#94a3b8" text-anchor="middle" font-weight="normal" font-family="monospace">5</text><line x1="510" y1="214" x2="510" y2="226" stroke="#94a3b8" stroke-width="1.5"/><text x="510" y="242" font-size="13" fill="#94a3b8" text-anchor="middle" font-weight="normal" font-family="monospace">6</text><line x1="585" y1="214" x2="585" y2="226" stroke="#94a3b8" stroke-width="1.5"/><text x="585" y="242" font-size="13" fill="#94a3b8" text-anchor="middle" font-weight="normal" font-family="monospace">7</text><line x1="660" y1="214" x2="660" y2="226" stroke="#94a3b8" stroke-width="1.5"/><text x="660" y="242" font-size="13" fill="#94a3b8" text-anchor="middle" font-weight="normal" font-family="monospace">8</text><line x1="735" y1="214" x2="735" y2="226" stroke="#94a3b8" stroke-width="1.5"/><text x="735" y="242" font-size="13" fill="#94a3b8" text-anchor="middle" font-weight="normal" font-family="monospace">9</text><line x1="435.0" y1="170" x2="435.0" y2="270" stroke="#fbbf24" stroke-width="3"/><text x="435.0" y="160" font-size="16" fill="#fbbf24" text-anchor="middle" font-weight="bold" font-family="monospace">x̄ = 5</text><circle cx="210" cy="220" r="14" fill="#4a9eff44" stroke="#4a9eff" stroke-width="2.5"/><path d="M 435.0 140 L 210 140" stroke="#f87171" stroke-width="2" marker-end="url(#arrB)"/><text x="322.0" y="128" font-size="12" fill="#f87171" text-anchor="middle" font-weight="normal" font-family="monospace">-3</text><circle cx="435" cy="220" r="14" fill="#2dd4bf44" stroke="#2dd4bf" stroke-width="2.5"/><path d="M 435.0 115 L 435 115" stroke="#34d399" stroke-width="2" marker-end="url(#arrB)"/><text x="435.0" y="103" font-size="12" fill="#34d399" text-anchor="middle" font-weight="normal" font-family="monospace">+0</text><circle cx="660" cy="220" r="14" fill="#a78bfa44" stroke="#a78bfa" stroke-width="2.5"/><path d="M 435.0 90 L 660 90" stroke="#34d399" stroke-width="2" marker-end="url(#arrB)"/><text x="547.0" y="78" font-size="12" fill="#34d399" text-anchor="middle" font-weight="normal" font-family="monospace">+3</text><circle cx="360" cy="220" r="14" fill="#34d39944" stroke="#34d399" stroke-width="2.5"/><path d="M 435.0 65 L 360 65" stroke="#f87171" stroke-width="2" marker-end="url(#arrB)"/><text x="397.0" y="53" font-size="12" fill="#f87171" text-anchor="middle" font-weight="normal" font-family="monospace">-1</text><circle cx="510" cy="220" r="14" fill="#f8717144" stroke="#f87171" stroke-width="2.5"/><path d="M 435.0 40 L 510 40" stroke="#34d399" stroke-width="2" marker-end="url(#arrB)"/><text x="472.0" y="28" font-size="12" fill="#34d399" text-anchor="middle" font-weight="normal" font-family="monospace">+1</text><rect x="60" y="360" width="680" height="70" fill="#252d3e" stroke="#374151" stroke-width="1.5" rx="8"/><text x="400" y="390" font-size="15" fill="#e2e8f0" text-anchor="middle" font-weight="normal" font-family="monospace">Отклонения: [-3.0, 0.0, 3.0, -1.0, 1.0]</text><text x="400" y="418" font-size="15" fill="#34d399" text-anchor="middle" font-weight="bold" font-family="monospace">Сумма = 0  ←  Сумма отклонений ВСЕГДА равна 0</text>
</svg>