<svg xmlns="http://www.w3.org/2000/svg" viewBox="0 0 800 460" width="800" height="460">
  <rect width="800" height="460" fill="#1e2433" rx="12"/>
  <defs><marker id="arr" markerWidth="10" markerHeight="7" refX="9" refY="3.5" orient="auto"><polygon points="0 0, 10 3.5, 0 7" fill="#94a3b8"/></marker><marker id="arrB" markerWidth="10" markerHeight="7" refX="9" refY="3.5" orient="auto"><polygon points="0 0, 10 3.5, 0 7" fill="#4a9eff"/></marker></defs><text x="400" y="30" font-size="20" fill="#e2e8f0" text-anchor="middle" font-weight="bold" font-family="monospace">Благоприятствующие исходы</text><rect x="100" y="100" width="130" height="120" fill="#252d3e" stroke="#374151" stroke-width="1.5" rx="10"/><text x="165" y="155" font-size="32" fill="#94a3b8" text-anchor="middle" font-weight="bold" font-family="monospace">1</text><rect x="280" y="100" width="130" height="120" fill="#34d39922" stroke="#34d399" stroke-width="3" rx="10"/><text x="345" y="155" font-size="32" fill="#34d399" text-anchor="middle" font-weight="bold" font-family="monospace">2</text><text x="345" y="188" font-size="13" fill="#34d399" text-anchor="middle" font-weight="normal" font-family="monospace">✓ чётное</text><rect x="460" y="100" width="130" height="120" fill="#252d3e" stroke="#374151" stroke-width="1.5" rx="10"/><text x="525" y="155" font-size="32" fill="#94a3b8" text-anchor="middle" font-weight="bold" font-family="monospace">3</text><rect x="100" y="260" width="130" height="120" fill="#34d39922" stroke="#34d399" stroke-width="3" rx="10"/><text x="165" y="315" font-size="32" fill="#34d399" text-anchor="middle" font-weight="bold" font-family="monospace">4</text><text x="165" y="348" font-size="13" fill="#34d399" text-anchor="middle" font-weight="normal" font-family="monospace">✓ чётное</text><rect x="280" y="260" width="130" height="120" fill="#252d3e" stroke="#374151" stroke-width="1.5" rx="10"/><text x="345" y="315" font-size="32" fill="#94a3b8" text-anchor="middle" font-weight="bold" font-family="monospace">5</text><rect x="460" y="260" width="130" height="120" fill="#34d39922" stroke="#34d399" stroke-width="3" rx="10"/><text x="525" y="315" font-size="32" fill="#34d399" text-anchor="middle" font-weight="bold" font-family="monospace">6</text><text x="525" y="348" font-size="13" fill="#34d399" text-anchor="middle" font-weight="normal" font-family="monospace">✓ чётное</text><rect x="100" y="410" width="600" height="30" fill="#252d3e" stroke="#374151" stroke-width="1.5" rx="8"/><text x="400" y="430" font-size="14" fill="#e2e8f0" text-anchor="middle" font-weight="normal" font-family="monospace">P(чётное) = m/n = 3/6 = 0.5    m=3 (зелёных),  n=6 (всего)</text>
</svg>