<svg xmlns="http://www.w3.org/2000/svg" viewBox="0 0 800 460"><rect width="800" height="460" fill="#1e2433"/><text x="400" y="35" fill="#8892a4" font-size="14" text-anchor="middle" font-family="monospace" font-weight="normal">Опыт с монетой: частота → вероятность</text><text x="400" y="65" fill="#2dd4bf" font-size="15" text-anchor="middle" font-family="monospace" font-weight="bold">Чем больше бросков — тем ближе к 0.5</text><line x1="100" y1="370" x2="700" y2="370" stroke="#8892a4" stroke-width="1"/><line x1="100" y1="370" x2="100" y2="100" stroke="#8892a4" stroke-width="1"/><line x1="100" y1="235" x2="700" y2="235" stroke="#fbbf24" stroke-width="1" stroke-dasharray="4"/><text x="90" y="235" fill="#fbbf24" font-size="12" text-anchor="end" font-family="monospace" font-weight="normal">0.5</text><line x1="106" y1="289" x2="130" y2="257" stroke="#2dd4bf" stroke-width="2"/><line x1="130" y1="257" x2="160" y2="244" stroke="#2dd4bf" stroke-width="2"/><line x1="160" y1="244" x2="220" y2="233" stroke="#2dd4bf" stroke-width="2"/><line x1="220" y1="233" x2="400" y2="237" stroke="#2dd4bf" stroke-width="2"/><line x1="400" y1="237" x2="700" y2="236" stroke="#2dd4bf" stroke-width="2"/><circle cx="106" cy="289" r="5" fill="#2dd4bf"/><circle cx="130" cy="257" r="5" fill="#2dd4bf"/><circle cx="160" cy="244" r="5" fill="#2dd4bf"/><circle cx="220" cy="233" r="5" fill="#2dd4bf"/><circle cx="400" cy="237" r="5" fill="#2dd4bf"/><circle cx="700" cy="236" r="5" fill="#2dd4bf"/><text x="106" y="390" fill="#8892a4" font-size="11" text-anchor="middle" font-family="monospace" font-weight="normal">10</text><text x="130" y="390" fill="#8892a4" font-size="11" text-anchor="middle" font-family="monospace" font-weight="normal">50</text><text x="160" y="390" fill="#8892a4" font-size="11" text-anchor="middle" font-family="monospace" font-weight="normal">100</text><text x="220" y="390" fill="#8892a4" font-size="11" text-anchor="middle" font-family="monospace" font-weight="normal">200</text><text x="400" y="390" fill="#8892a4" font-size="11" text-anchor="middle" font-family="monospace" font-weight="normal">500</text><text x="700" y="390" fill="#8892a4" font-size="11" text-anchor="middle" font-family="monospace" font-weight="normal">1000</text><text x="400" y="410" fill="#8892a4" font-size="13" text-anchor="middle" font-family="monospace" font-weight="normal">Число бросков n</text><text x="60" y="230" fill="#8892a4" font-size="13" text-anchor="middle" font-family="monospace" font-weight="normal">P*</text></svg>