<svg xmlns="http://www.w3.org/2000/svg" viewBox="0 0 800 460" width="800" height="460">
  <rect width="800" height="460" fill="#1e2433" rx="12"/>
  <defs><marker id="arr" markerWidth="10" markerHeight="7" refX="9" refY="3.5" orient="auto"><polygon points="0 0, 10 3.5, 0 7" fill="#94a3b8"/></marker><marker id="arrB" markerWidth="10" markerHeight="7" refX="9" refY="3.5" orient="auto"><polygon points="0 0, 10 3.5, 0 7" fill="#4a9eff"/></marker></defs><text x="400" y="28" font-size="19" fill="#e2e8f0" text-anchor="middle" font-weight="bold" font-family="monospace">Закон больших чисел (Якоб Бернулли, 1713)</text><rect x="60" y="70" width="640" height="280" fill="#252d3e" stroke="#374151" stroke-width="1.5" rx="6"/><line x1="60" y1="294" x2="700" y2="294" stroke="#374151" stroke-width="1" stroke-dasharray="4,2"/><text x="52" y="299" font-size="11" fill="#94a3b8" text-anchor="end" font-weight="normal" font-family="monospace">0.2</text><line x1="60" y1="238" x2="700" y2="238" stroke="#374151" stroke-width="1" stroke-dasharray="4,2"/><text x="52" y="243" font-size="11" fill="#94a3b8" text-anchor="end" font-weight="normal" font-family="monospace">0.4</text><line x1="60" y1="210" x2="700" y2="210" stroke="#fbbf24" stroke-width="2" stroke-dasharray=""/><text x="52" y="215" font-size="11" fill="#94a3b8" text-anchor="end" font-weight="normal" font-family="monospace">0.5</text><line x1="60" y1="182" x2="700" y2="182" stroke="#374151" stroke-width="1" stroke-dasharray="4,2"/><text x="52" y="187" font-size="11" fill="#94a3b8" text-anchor="end" font-weight="normal" font-family="monospace">0.6</text><line x1="60" y1="126" x2="700" y2="126" stroke="#374151" stroke-width="1" stroke-dasharray="4,2"/><text x="52" y="131" font-size="11" fill="#94a3b8" text-anchor="end" font-weight="normal" font-family="monospace">0.8</text><text x="708" y="215" font-size="12" fill="#fbbf24" text-anchor="start" font-weight="normal" font-family="monospace">P=0.5</text><path d="M 60 350 L 63 350 L 66 257 L 69 280 L 72 294 L 76 304 L 79 310 L 82 315 L 85 288 L 88 294 L 92 300 L 95 304 L 98 307 L 101 310 L 104 313 L 108 315 L 111 301 L 114 304 L 117 292 L 120 280 L 124 284 L 127 287 L 130 277 L 133 269 L 136 261 L 140 264 L 143 268 L 146 260 L 149 264 L 152 266 L 156 260 L 159 263 L 162 257 L 165 252 L 168 246 L 172 249 L 175 245 L 178 247 L 181 243 L 184 245 L 188 241 L 191 237 L 194 240 L 197 242 L 200 245 L 204 247 L 207 243 L 210 245 L 213 248 L 216 250 L 220 246 L 223 243 L 226 240 L 229 236 L 232 238 L 236 235 L 239 233 L 242 235 L 245 232 L 248 234 L 252 236 L 255 238 L 258 239 L 261 237 L 264 234 L 268 232 L 271 233 L 274 231 L 277 233 L 280 234 L 284 236 L 287 234 L 290 232 L 293 229 L 296 231 L 300 233 L 303 230 L 306 232 L 309 230 L 312 228 L 316 226 L 319 228 L 322 226 L 325 227 L 328 229 L 332 227 L 335 225 L 338 223 L 341 222 L 344 223 L 348 224 L 351 223 L 354 224 L 357 225 L 360 227 L 364 228 L 367 229 L 370 228 L 373 229 L 376 227 L 380 226 L 383 224 L 386 223 L 389 224 L 392 225 L 396 224 L 399 222 L 402 223 L 405 222 L 408 221 L 412 222 L 415 220 L 418 222 L 421 220 L 424 221 L 428 223 L 431 221 L 434 222 L 437 223 L 440 222 L 444 223 L 447 224 L 450 223 L 453 222 L 456 223 L 460 224 L 463 223 L 466 221 L 469 222 L 472 223 L 476 224 L 479 225 L 482 226 L 485 225 L 488 226 L 492 227 L 495 228 L 498 227 L 501 228 L 504 226 L 508 225 L 511 226 L 514 227 L 517 226 L 520 225 L 524 224 L 527 223 L 530 222 L 533 223 L 536 224 L 540 224 L 543 225 L 546 224 L 549 225 L 552 226 L 556 227 L 559 227 L 562 228 L 565 229 L 568 230 L 572 230 L 575 231 L 578 230 L 581 231 L 584 232 L 588 231 L 591 230 L 594 230 L 597 231 L 600 230 L 604 231 L 607 230 L 610 229 L 613 230 L 616 230 L 620 231 L 623 230 L 626 229 L 629 228 L 632 228 L 636 227 L 639 227 L 642 228 L 645 229 L 648 228 L 652 227 L 655 228 L 658 228 L 661 229 L 664 230 L 668 229 L 671 229 L 674 229 L 677 229 L 680 228 L 684 228 L 687 228 L 690 229 L 693 228 L 696 229" stroke="#4a9eff" stroke-width="2" fill="none"/><text x="90" y="100" font-size="12" fill="#4a9eff" text-anchor="middle" font-weight="normal" font-family="monospace">Частота</text><text x="90" y="118" font-size="11" fill="#94a3b8" text-anchor="middle" font-weight="normal" font-family="monospace">(n=200 бросков)</text><text x="380" y="375" font-size="13" fill="#94a3b8" text-anchor="middle" font-weight="normal" font-family="monospace">Число бросков n →</text><rect x="60" y="380" width="680" height="60" fill="#252d3e" stroke="#374151" stroke-width="1.5" rx="8"/><text x="400" y="406" font-size="15" fill="#e2e8f0" text-anchor="middle" font-weight="normal" font-family="monospace">С ростом n частота орла стремится к вероятности 0.5</text><text x="400" y="430" font-size="14" fill="#2dd4bf" text-anchor="middle" font-weight="normal" font-family="monospace">Это закон больших чисел — фундамент теории вероятностей</text>
</svg>