<svg xmlns="http://www.w3.org/2000/svg" viewBox="0 0 800 460" width="800" height="460">
  <rect width="800" height="460" fill="#1e2433" rx="12"/>
  <defs><marker id="arr" markerWidth="10" markerHeight="7" refX="9" refY="3.5" orient="auto"><polygon points="0 0, 10 3.5, 0 7" fill="#94a3b8"/></marker><marker id="arrB" markerWidth="10" markerHeight="7" refX="9" refY="3.5" orient="auto"><polygon points="0 0, 10 3.5, 0 7" fill="#4a9eff"/></marker></defs><text x="400" y="42" font-size="20" fill="#e2e8f0" text-anchor="middle" font-weight="bold" font-family="monospace">Среднее числового набора</text><line x1="50" y1="370" x2="640" y2="370" stroke="#94a3b8" stroke-width="2"/><line x1="50" y1="100" x2="50" y2="370" stroke="#94a3b8" stroke-width="2"/><line x1="44" y1="370.0" x2="50" y2="370.0" stroke="#94a3b8" stroke-width="1.5"/><text x="38" y="375.0" font-size="13" fill="#94a3b8" text-anchor="end" font-weight="normal" font-family="monospace">0</text><line x1="44" y1="330.0" x2="50" y2="330.0" stroke="#94a3b8" stroke-width="1.5"/><text x="38" y="335.0" font-size="13" fill="#94a3b8" text-anchor="end" font-weight="normal" font-family="monospace">2</text><line x1="44" y1="290.0" x2="50" y2="290.0" stroke="#94a3b8" stroke-width="1.5"/><text x="38" y="295.0" font-size="13" fill="#94a3b8" text-anchor="end" font-weight="normal" font-family="monospace">4</text><line x1="44" y1="250.0" x2="50" y2="250.0" stroke="#94a3b8" stroke-width="1.5"/><text x="38" y="255.0" font-size="13" fill="#94a3b8" text-anchor="end" font-weight="normal" font-family="monospace">6</text><line x1="44" y1="210.0" x2="50" y2="210.0" stroke="#94a3b8" stroke-width="1.5"/><text x="38" y="215.0" font-size="13" fill="#94a3b8" text-anchor="end" font-weight="normal" font-family="monospace">8</text><line x1="44" y1="170.0" x2="50" y2="170.0" stroke="#94a3b8" stroke-width="1.5"/><text x="38" y="175.0" font-size="13" fill="#94a3b8" text-anchor="end" font-weight="normal" font-family="monospace">10</text><rect x="80" y="310.0" width="80" height="60.0" fill="#4a9eff" opacity="0.8" rx="4"/><text x="120" y="302.0" font-size="15" fill="#4a9eff" text-anchor="middle" font-weight="normal" font-family="monospace">3</text><text x="120" y="388" font-size="13" fill="#94a3b8" text-anchor="middle" font-weight="normal" font-family="monospace">x1=3</text><rect x="190" y="230.0" width="80" height="140.0" fill="#4a9eff" opacity="0.8" rx="4"/><text x="230" y="222.0" font-size="15" fill="#4a9eff" text-anchor="middle" font-weight="normal" font-family="monospace">7</text><text x="230" y="388" font-size="13" fill="#94a3b8" text-anchor="middle" font-weight="normal" font-family="monospace">x2=7</text><rect x="300" y="270.0" width="80" height="100.0" fill="#4a9eff" opacity="0.8" rx="4"/><text x="340" y="262.0" font-size="15" fill="#4a9eff" text-anchor="middle" font-weight="normal" font-family="monospace">5</text><text x="340" y="388" font-size="13" fill="#94a3b8" text-anchor="middle" font-weight="normal" font-family="monospace">x3=5</text><rect x="410" y="330.0" width="80" height="40.0" fill="#4a9eff" opacity="0.8" rx="4"/><text x="450" y="322.0" font-size="15" fill="#4a9eff" text-anchor="middle" font-weight="normal" font-family="monospace">2</text><text x="450" y="388" font-size="13" fill="#94a3b8" text-anchor="middle" font-weight="normal" font-family="monospace">x4=2</text><rect x="520" y="210.0" width="80" height="160.0" fill="#4a9eff" opacity="0.8" rx="4"/><text x="560" y="202.0" font-size="15" fill="#4a9eff" text-anchor="middle" font-weight="normal" font-family="monospace">8</text><text x="560" y="388" font-size="13" fill="#94a3b8" text-anchor="middle" font-weight="normal" font-family="monospace">x5=8</text><line x1="50" y1="270.0" x2="640" y2="270.0" stroke="#fbbf24" stroke-width="2.5" stroke-dasharray="8,4"/><text x="660" y="275.0" font-size="16" fill="#fbbf24" text-anchor="start" font-weight="bold" font-family="monospace">x̄=5.0</text><rect x="660" y="140" width="120" height="60" fill="#252d3e" stroke="#2dd4bf" stroke-width="1.5" rx="8"/><text x="720" y="166" font-size="15" fill="#2dd4bf" text-anchor="middle" font-weight="normal" font-family="monospace">x̄ = Σxᵢ</text><text x="720" y="188" font-size="15" fill="#2dd4bf" text-anchor="middle" font-weight="normal" font-family="monospace">     n</text><line x1="710" y1="176" x2="790" y2="176" stroke="#2dd4bf" stroke-width="1"/>
</svg>