<svg xmlns="http://www.w3.org/2000/svg" viewBox="0 0 800 460" width="800" height="460">
  <rect width="800" height="460" fill="#1e2433" rx="12"/>
  <defs><marker id="arr" markerWidth="10" markerHeight="7" refX="9" refY="3.5" orient="auto"><polygon points="0 0, 10 3.5, 0 7" fill="#94a3b8"/></marker><marker id="arrB" markerWidth="10" markerHeight="7" refX="9" refY="3.5" orient="auto"><polygon points="0 0, 10 3.5, 0 7" fill="#4a9eff"/></marker></defs><text x="400" y="30" font-size="20" fill="#e2e8f0" text-anchor="middle" font-weight="bold" font-family="monospace">Правило умножения</text><circle cx="120" cy="230" r="22" fill="#252d3e" stroke="#4a9eff" stroke-width="2.5"/><text x="120" y="236" font-size="16" fill="#4a9eff" text-anchor="middle" font-weight="normal" font-family="monospace">▶</text><line x1="142" y1="230" x2="230" y2="130" stroke="#94a3b8" stroke-width="1.5"/><circle cx="230" cy="130" r="22" fill="#252d3e" stroke="#2dd4bf" stroke-width="2"/><text x="230" y="136" font-size="14" fill="#2dd4bf" text-anchor="middle" font-weight="bold" font-family="monospace">А</text><line x1="252" y1="130" x2="380" y2="90" stroke="#94a3b8" stroke-width="1.5"/><circle cx="380" cy="90" r="20" fill="#252d3e" stroke="#a78bfa" stroke-width="2"/><text x="380" y="96" font-size="13" fill="#a78bfa" text-anchor="middle" font-weight="bold" font-family="monospace">1</text><rect x="490" y="74" width="60" height="32" fill="#34d39922" stroke="#34d399" stroke-width="1" rx="4"/><text x="520" y="96" font-size="13" fill="#34d399" text-anchor="middle" font-weight="normal" font-family="monospace">А1</text><line x1="252" y1="130" x2="380" y2="170" stroke="#94a3b8" stroke-width="1.5"/><circle cx="380" cy="170" r="20" fill="#252d3e" stroke="#a78bfa" stroke-width="2"/><text x="380" y="176" font-size="13" fill="#a78bfa" text-anchor="middle" font-weight="bold" font-family="monospace">2</text><rect x="490" y="154" width="60" height="32" fill="#34d39922" stroke="#34d399" stroke-width="1" rx="4"/><text x="520" y="176" font-size="13" fill="#34d399" text-anchor="middle" font-weight="normal" font-family="monospace">А2</text><line x1="142" y1="230" x2="230" y2="230" stroke="#94a3b8" stroke-width="1.5"/><circle cx="230" cy="230" r="22" fill="#252d3e" stroke="#2dd4bf" stroke-width="2"/><text x="230" y="236" font-size="14" fill="#2dd4bf" text-anchor="middle" font-weight="bold" font-family="monospace">Б</text><line x1="252" y1="230" x2="380" y2="190" stroke="#94a3b8" stroke-width="1.5"/><circle cx="380" cy="190" r="20" fill="#252d3e" stroke="#a78bfa" stroke-width="2"/><text x="380" y="196" font-size="13" fill="#a78bfa" text-anchor="middle" font-weight="bold" font-family="monospace">1</text><rect x="490" y="174" width="60" height="32" fill="#34d39922" stroke="#34d399" stroke-width="1" rx="4"/><text x="520" y="196" font-size="13" fill="#34d399" text-anchor="middle" font-weight="normal" font-family="monospace">Б1</text><line x1="252" y1="230" x2="380" y2="270" stroke="#94a3b8" stroke-width="1.5"/><circle cx="380" cy="270" r="20" fill="#252d3e" stroke="#a78bfa" stroke-width="2"/><text x="380" y="276" font-size="13" fill="#a78bfa" text-anchor="middle" font-weight="bold" font-family="monospace">2</text><rect x="490" y="254" width="60" height="32" fill="#34d39922" stroke="#34d399" stroke-width="1" rx="4"/><text x="520" y="276" font-size="13" fill="#34d399" text-anchor="middle" font-weight="normal" font-family="monospace">Б2</text><line x1="142" y1="230" x2="230" y2="330" stroke="#94a3b8" stroke-width="1.5"/><circle cx="230" cy="330" r="22" fill="#252d3e" stroke="#2dd4bf" stroke-width="2"/><text x="230" y="336" font-size="14" fill="#2dd4bf" text-anchor="middle" font-weight="bold" font-family="monospace">В</text><line x1="252" y1="330" x2="380" y2="290" stroke="#94a3b8" stroke-width="1.5"/><circle cx="380" cy="290" r="20" fill="#252d3e" stroke="#a78bfa" stroke-width="2"/><text x="380" y="296" font-size="13" fill="#a78bfa" text-anchor="middle" font-weight="bold" font-family="monospace">1</text><rect x="490" y="274" width="60" height="32" fill="#34d39922" stroke="#34d399" stroke-width="1" rx="4"/><text x="520" y="296" font-size="13" fill="#34d399" text-anchor="middle" font-weight="normal" font-family="monospace">В1</text><line x1="252" y1="330" x2="380" y2="370" stroke="#94a3b8" stroke-width="1.5"/><circle cx="380" cy="370" r="20" fill="#252d3e" stroke="#a78bfa" stroke-width="2"/><text x="380" y="376" font-size="13" fill="#a78bfa" text-anchor="middle" font-weight="bold" font-family="monospace">2</text><rect x="490" y="354" width="60" height="32" fill="#34d39922" stroke="#34d399" stroke-width="1" rx="4"/><text x="520" y="376" font-size="13" fill="#34d399" text-anchor="middle" font-weight="normal" font-family="monospace">В2</text><text x="600" y="140" font-size="16" fill="#e2e8f0" text-anchor="middle" font-weight="normal" font-family="monospace">3 буквы ×</text><text x="600" y="168" font-size="16" fill="#e2e8f0" text-anchor="middle" font-weight="normal" font-family="monospace">2 цифры =</text><text x="600" y="210" font-size="22" fill="#fbbf24" text-anchor="middle" font-weight="bold" font-family="monospace">6 вариантов</text><rect x="60" y="400" width="680" height="42" fill="#252d3e" stroke="#374151" stroke-width="1.5" rx="8"/><text x="400" y="426" font-size="16" fill="#e2e8f0" text-anchor="middle" font-weight="bold" font-family="monospace">Правило умножения: N = n₁ × n₂ × ... × nₖ</text>
</svg>