<svg xmlns="http://www.w3.org/2000/svg" viewBox="0 0 800 460"><rect width="800" height="460" fill="#1e2433"/><text x="400" y="35" fill="#8892a4" font-size="14" text-anchor="middle" font-family="monospace" font-weight="normal">Дерево вероятностей: правило умножения</text><text x="400" y="60" fill="#2dd4bf" font-size="15" text-anchor="middle" font-family="monospace" font-weight="bold">P(путь) = P(ветвь₁) × P(ветвь₂)</text><circle cx="400" cy="120" r="12" fill="#4a9eff" stroke="#4a9eff" stroke-width="0"/><circle cx="400" cy="120" r="12" fill="#4a9eff"/><line x1="400" y1="132" x2="250" y2="240" stroke="#2dd4bf" stroke-width="2"/><text x="310" y="180" fill="#2dd4bf" font-size="14" text-anchor="middle" font-family="monospace" font-weight="normal">2/3</text><circle cx="250" cy="250" r="10" fill="#2dd4bf" stroke="#2dd4bf" stroke-width="0"/><circle cx="250" cy="250" r="10" fill="#2dd4bf"/><line x1="250" y1="260" x2="180" y2="360" stroke="#34d399" stroke-width="1.5"/><text x="200" y="315" fill="#34d399" font-size="13" text-anchor="middle" font-family="monospace" font-weight="normal">1/2</text><line x1="250" y1="260" x2="320" y2="360" stroke="#f87171" stroke-width="1.5"/><text x="295" y="315" fill="#f87171" font-size="13" text-anchor="middle" font-family="monospace" font-weight="normal">1/2</text><text x="170" y="380" fill="#34d399" font-size="13" text-anchor="middle" font-family="monospace" font-weight="normal">P=2/3×1/2=1/3</text><text x="310" y="380" fill="#f87171" font-size="13" text-anchor="middle" font-family="monospace" font-weight="normal">P=2/3×1/2=1/3</text><line x1="400" y1="132" x2="550" y2="240" stroke="#a78bfa" stroke-width="2"/><text x="490" y="180" fill="#a78bfa" font-size="14" text-anchor="middle" font-family="monospace" font-weight="normal">1/3</text><circle cx="550" cy="250" r="10" fill="#a78bfa" stroke="#a78bfa" stroke-width="0"/><circle cx="550" cy="250" r="10" fill="#a78bfa"/><line x1="550" y1="260" x2="490" y2="360" stroke="#34d399" stroke-width="1.5"/><text x="505" y="315" fill="#34d399" font-size="13" text-anchor="middle" font-family="monospace" font-weight="normal">3/4</text><line x1="550" y1="260" x2="620" y2="360" stroke="#f87171" stroke-width="1.5"/><text x="600" y="315" fill="#f87171" font-size="13" text-anchor="middle" font-family="monospace" font-weight="normal">1/4</text><text x="480" y="380" fill="#34d399" font-size="13" text-anchor="middle" font-family="monospace" font-weight="normal">P=1/3×3/4=1/4</text><text x="610" y="380" fill="#f87171" font-size="13" text-anchor="middle" font-family="monospace" font-weight="normal">P=1/3×1/4=1/12</text></svg>