<svg xmlns="http://www.w3.org/2000/svg" viewBox="0 0 800 460" width="800" height="460">
  <rect width="800" height="460" fill="#1e2433" rx="12"/>
  <defs><marker id="arr" markerWidth="10" markerHeight="7" refX="9" refY="3.5" orient="auto"><polygon points="0 0, 10 3.5, 0 7" fill="#94a3b8"/></marker><marker id="arrB" markerWidth="10" markerHeight="7" refX="9" refY="3.5" orient="auto"><polygon points="0 0, 10 3.5, 0 7" fill="#4a9eff"/></marker></defs><text x="400" y="25" font-size="19" fill="#e2e8f0" text-anchor="middle" font-weight="bold" font-family="monospace">Дерево случайного эксперимента: 2 броска монеты</text><line x1="70" y1="230" x2="220" y2="150" stroke="#94a3b8" stroke-width="1.5"/><text x="133" y="184" font-size="12" fill="#4a9eff" text-anchor="middle" font-weight="normal" font-family="monospace">1/2</text><line x1="70" y1="230" x2="220" y2="310" stroke="#94a3b8" stroke-width="1.5"/><text x="133" y="264" font-size="12" fill="#f87171" text-anchor="middle" font-weight="normal" font-family="monospace">1/2</text><line x1="220" y1="150" x2="380" y2="100" stroke="#94a3b8" stroke-width="1.5"/><text x="288" y="119" font-size="12" fill="#4a9eff" text-anchor="middle" font-weight="normal" font-family="monospace">1/2</text><line x1="220" y1="150" x2="380" y2="200" stroke="#94a3b8" stroke-width="1.5"/><text x="288" y="169" font-size="12" fill="#f87171" text-anchor="middle" font-weight="normal" font-family="monospace">1/2</text><line x1="220" y1="310" x2="380" y2="260" stroke="#94a3b8" stroke-width="1.5"/><text x="288" y="279" font-size="12" fill="#4a9eff" text-anchor="middle" font-weight="normal" font-family="monospace">1/2</text><line x1="220" y1="310" x2="380" y2="360" stroke="#94a3b8" stroke-width="1.5"/><text x="288" y="329" font-size="12" fill="#f87171" text-anchor="middle" font-weight="normal" font-family="monospace">1/2</text><circle cx="70" cy="230" r="18" fill="#252d3e" stroke="#e2e8f0" stroke-width="2"/><text x="70" y="235" font-size="12" fill="#e2e8f0" text-anchor="middle" font-weight="bold" font-family="monospace">▶</text><circle cx="220" cy="150" r="15" fill="#252d3e" stroke="#4a9eff" stroke-width="2"/><text x="220" y="155" font-size="12" fill="#4a9eff" text-anchor="middle" font-weight="bold" font-family="monospace">O</text><circle cx="220" cy="310" r="15" fill="#252d3e" stroke="#f87171" stroke-width="2"/><text x="220" y="315" font-size="12" fill="#f87171" text-anchor="middle" font-weight="bold" font-family="monospace">R</text><circle cx="380" cy="100" r="15" fill="#252d3e" stroke="#4a9eff" stroke-width="2"/><text x="380" y="105" font-size="12" fill="#4a9eff" text-anchor="middle" font-weight="bold" font-family="monospace">OO</text><circle cx="380" cy="200" r="15" fill="#252d3e" stroke="#4a9eff" stroke-width="2"/><text x="380" y="205" font-size="12" fill="#4a9eff" text-anchor="middle" font-weight="bold" font-family="monospace">OR</text><circle cx="380" cy="260" r="15" fill="#252d3e" stroke="#4a9eff" stroke-width="2"/><text x="380" y="265" font-size="12" fill="#4a9eff" text-anchor="middle" font-weight="bold" font-family="monospace">RO</text><circle cx="380" cy="360" r="15" fill="#252d3e" stroke="#f87171" stroke-width="2"/><text x="380" y="365" font-size="12" fill="#f87171" text-anchor="middle" font-weight="bold" font-family="monospace">RR</text><rect x="415" y="82" width="120" height="36" fill="#252d3e" stroke="#34d399" stroke-width="1.5" rx="6"/><text x="476" y="106" font-size="13" fill="#34d399" text-anchor="middle" font-weight="bold" font-family="monospace">ОО = 1/4</text><rect x="415" y="182" width="120" height="36" fill="#252d3e" stroke="#fbbf24" stroke-width="1.5" rx="6"/><text x="476" y="206" font-size="13" fill="#fbbf24" text-anchor="middle" font-weight="bold" font-family="monospace">ОР = 1/4</text><rect x="415" y="242" width="120" height="36" fill="#252d3e" stroke="#fbbf24" stroke-width="1.5" rx="6"/><text x="476" y="266" font-size="13" fill="#fbbf24" text-anchor="middle" font-weight="bold" font-family="monospace">РО = 1/4</text><rect x="415" y="342" width="120" height="36" fill="#252d3e" stroke="#34d399" stroke-width="1.5" rx="6"/><text x="476" y="366" font-size="13" fill="#34d399" text-anchor="middle" font-weight="bold" font-family="monospace">РР = 1/4</text><rect x="565" y="85" width="210" height="100" fill="#252d3e" stroke="#374151" stroke-width="1.5" rx="8"/><text x="670" y="110" font-size="13" fill="#94a3b8" text-anchor="middle" font-weight="normal" font-family="monospace">Сумма листьев:</text><text x="670" y="132" font-size="13" fill="#e2e8f0" text-anchor="middle" font-weight="normal" font-family="monospace">1/4+1/4+1/4+1/4</text><text x="670" y="156" font-size="16" fill="#34d399" text-anchor="middle" font-weight="bold" font-family="monospace">= 1 ✓</text><text x="670" y="178" font-size="12" fill="#94a3b8" text-anchor="middle" font-weight="normal" font-family="monospace">Умножаем по пути</text>
</svg>