<svg xmlns="http://www.w3.org/2000/svg" viewBox="0 0 800 460" width="800" height="460">
  <rect width="800" height="460" fill="#1e2433" rx="12"/>
  <defs><marker id="arr" markerWidth="10" markerHeight="7" refX="9" refY="3.5" orient="auto"><polygon points="0 0, 10 3.5, 0 7" fill="#94a3b8"/></marker><marker id="arrB" markerWidth="10" markerHeight="7" refX="9" refY="3.5" orient="auto"><polygon points="0 0, 10 3.5, 0 7" fill="#4a9eff"/></marker></defs><text x="400" y="30" font-size="20" fill="#e2e8f0" text-anchor="middle" font-weight="bold" font-family="monospace">Правило умножения вероятностей</text><line x1="100" y1="230" x2="260" y2="150" stroke="#94a3b8" stroke-width="2"/><text x="170" y="135" font-size="13" fill="#4a9eff" text-anchor="middle" font-weight="normal" font-family="monospace">P=0.6</text><circle cx="260" cy="150" r="22" fill="#252d3e" stroke="#4a9eff" stroke-width="2.5"/><text x="260" y="156" font-size="14" fill="#4a9eff" text-anchor="middle" font-weight="bold" font-family="monospace">A</text><line x1="282" y1="150" x2="460" y2="100" stroke="#94a3b8" stroke-width="1.5"/><text x="370" y="88" font-size="12" fill="#34d399" text-anchor="middle" font-weight="normal" font-family="monospace">P=0.5</text><circle cx="460" cy="100" r="18" fill="#252d3e" stroke="#34d399" stroke-width="2"/><text x="460" y="105" font-size="12" fill="#34d399" text-anchor="middle" font-weight="bold" font-family="monospace">B</text><rect x="495" y="82" width="80" height="36" fill="#2dd4bf22" stroke="#2dd4bf" stroke-width="1.5" rx="6"/><text x="535" y="106" font-size="15" fill="#2dd4bf" text-anchor="middle" font-weight="bold" font-family="monospace">0.3</text><line x1="282" y1="150" x2="460" y2="200" stroke="#94a3b8" stroke-width="1.5"/><text x="370" y="188" font-size="12" fill="#fbbf24" text-anchor="middle" font-weight="normal" font-family="monospace">P=0.5</text><circle cx="460" cy="200" r="18" fill="#252d3e" stroke="#fbbf24" stroke-width="2"/><text x="460" y="205" font-size="12" fill="#fbbf24" text-anchor="middle" font-weight="bold" font-family="monospace">B̄</text><rect x="495" y="182" width="80" height="36" fill="#2dd4bf22" stroke="#2dd4bf" stroke-width="1.5" rx="6"/><text x="535" y="206" font-size="15" fill="#2dd4bf" text-anchor="middle" font-weight="bold" font-family="monospace">0.3</text><line x1="100" y1="230" x2="260" y2="310" stroke="#94a3b8" stroke-width="2"/><text x="170" y="295" font-size="13" fill="#f87171" text-anchor="middle" font-weight="normal" font-family="monospace">P=0.4</text><circle cx="260" cy="310" r="22" fill="#252d3e" stroke="#f87171" stroke-width="2.5"/><text x="260" y="316" font-size="14" fill="#f87171" text-anchor="middle" font-weight="bold" font-family="monospace">Ā</text><line x1="282" y1="310" x2="460" y2="260" stroke="#94a3b8" stroke-width="1.5"/><text x="370" y="248" font-size="12" fill="#34d399" text-anchor="middle" font-weight="normal" font-family="monospace">P=0.5</text><circle cx="460" cy="260" r="18" fill="#252d3e" stroke="#34d399" stroke-width="2"/><text x="460" y="265" font-size="12" fill="#34d399" text-anchor="middle" font-weight="bold" font-family="monospace">B</text><rect x="495" y="242" width="80" height="36" fill="#2dd4bf22" stroke="#2dd4bf" stroke-width="1.5" rx="6"/><text x="535" y="266" font-size="15" fill="#2dd4bf" text-anchor="middle" font-weight="bold" font-family="monospace">0.2</text><line x1="282" y1="310" x2="460" y2="360" stroke="#94a3b8" stroke-width="1.5"/><text x="370" y="348" font-size="12" fill="#fbbf24" text-anchor="middle" font-weight="normal" font-family="monospace">P=0.5</text><circle cx="460" cy="360" r="18" fill="#252d3e" stroke="#fbbf24" stroke-width="2"/><text x="460" y="365" font-size="12" fill="#fbbf24" text-anchor="middle" font-weight="bold" font-family="monospace">B̄</text><rect x="495" y="342" width="80" height="36" fill="#2dd4bf22" stroke="#2dd4bf" stroke-width="1.5" rx="6"/><text x="535" y="366" font-size="15" fill="#2dd4bf" text-anchor="middle" font-weight="bold" font-family="monospace">0.2</text><rect x="590" y="110" width="200" height="90" fill="#252d3e" stroke="#374151" stroke-width="1.5" rx="8"/><text x="690" y="138" font-size="13" fill="#94a3b8" text-anchor="middle" font-weight="normal" font-family="monospace">Независимые:</text><text x="690" y="162" font-size="14" fill="#34d399" text-anchor="middle" font-weight="bold" font-family="monospace">P(A∩B)=P(A)·P(B)</text><text x="690" y="188" font-size="13" fill="#94a3b8" text-anchor="middle" font-weight="normal" font-family="monospace">Зависимые:</text><text x="690" y="212" font-size="14" fill="#2dd4bf" text-anchor="middle" font-weight="bold" font-family="monospace">P(A∩B)=P(A)·P(B|A)</text><text x="690" y="420" font-size="14" fill="#34d399" text-anchor="middle" font-weight="normal" font-family="monospace">✓ Сумма листьев = 1</text>
</svg>