<svg xmlns="http://www.w3.org/2000/svg" viewBox="0 0 800 460" width="800" height="460">
  <rect width="800" height="460" fill="#1e2433" rx="12"/>
  <defs><marker id="arr" markerWidth="10" markerHeight="7" refX="9" refY="3.5" orient="auto"><polygon points="0 0, 10 3.5, 0 7" fill="#94a3b8"/></marker><marker id="arrB" markerWidth="10" markerHeight="7" refX="9" refY="3.5" orient="auto"><polygon points="0 0, 10 3.5, 0 7" fill="#4a9eff"/></marker></defs><text x="400" y="40" font-size="20" fill="#e2e8f0" text-anchor="middle" font-weight="bold" font-family="monospace">Диаграмма рассеивания</text><line x1="80" y1="400" x2="680" y2="400" stroke="#94a3b8" stroke-width="2"/><line x1="80" y1="80" x2="80" y2="400" stroke="#94a3b8" stroke-width="2"/><text x="400" y="440" font-size="15" fill="#94a3b8" text-anchor="middle" font-weight="normal" font-family="monospace">Количество часов подготовки</text><text x="25" y="240" font-size="15" fill="#94a3b8" text-anchor="middle" font-weight="normal" font-family="monospace">Оценка</text><line x1="100" y1="370" x2="650" y2="120" stroke="#2dd4bf" stroke-width="2" stroke-dasharray="6,3" opacity="0.7"/><circle cx="110" cy="360" r="7" fill="#4a9eff44" stroke="#4a9eff" stroke-width="2"/><circle cx="150" cy="320" r="7" fill="#4a9eff44" stroke="#4a9eff" stroke-width="2"/><circle cx="200" cy="300" r="7" fill="#4a9eff44" stroke="#4a9eff" stroke-width="2"/><circle cx="240" cy="280" r="7" fill="#4a9eff44" stroke="#4a9eff" stroke-width="2"/><circle cx="290" cy="260" r="7" fill="#4a9eff44" stroke="#4a9eff" stroke-width="2"/><circle cx="330" cy="240" r="7" fill="#4a9eff44" stroke="#4a9eff" stroke-width="2"/><circle cx="370" cy="220" r="7" fill="#4a9eff44" stroke="#4a9eff" stroke-width="2"/><circle cx="410" cy="210" r="7" fill="#4a9eff44" stroke="#4a9eff" stroke-width="2"/><circle cx="460" cy="190" r="7" fill="#4a9eff44" stroke="#4a9eff" stroke-width="2"/><circle cx="490" cy="180" r="7" fill="#4a9eff44" stroke="#4a9eff" stroke-width="2"/><circle cx="530" cy="160" r="7" fill="#4a9eff44" stroke="#4a9eff" stroke-width="2"/><circle cx="570" cy="150" r="7" fill="#4a9eff44" stroke="#4a9eff" stroke-width="2"/><circle cx="620" cy="130" r="7" fill="#4a9eff44" stroke="#4a9eff" stroke-width="2"/><circle cx="650" cy="125" r="7" fill="#4a9eff44" stroke="#4a9eff" stroke-width="2"/><circle cx="280" cy="310" r="7" fill="#4a9eff44" stroke="#4a9eff" stroke-width="2"/><circle cx="400" cy="230" r="7" fill="#4a9eff44" stroke="#4a9eff" stroke-width="2"/><text x="690" y="400" font-size="16" fill="#94a3b8" text-anchor="middle" font-weight="normal" font-family="monospace">X</text><text x="80" y="68" font-size="16" fill="#94a3b8" text-anchor="middle" font-weight="normal" font-family="monospace">Y</text><rect x="480" y="300" width="200" height="60" fill="#252d3e" stroke="#2dd4bf" stroke-width="1.5" rx="8"/><text x="580" y="322" font-size="13" fill="#2dd4bf" text-anchor="middle" font-weight="normal" font-family="monospace">↗ Положительная</text><text x="580" y="344" font-size="13" fill="#2dd4bf" text-anchor="middle" font-weight="normal" font-family="monospace">корреляция</text><text x="580" y="362" font-size="12" fill="#94a3b8" text-anchor="middle" font-weight="normal" font-family="monospace">Связь, не причина!</text>
</svg>