<svg xmlns="http://www.w3.org/2000/svg" viewBox="0 0 800 460"><rect width="800" height="460" fill="#1e2433"/><text x="400" y="30" fill="#8892a4" font-size="14" text-anchor="middle" font-family="monospace" font-weight="normal">Диаграмма рассеивания: три вида связи</text><circle cx="110" cy="340" r="5" fill="#2dd4bf" stroke="#2dd4bf" stroke-width="0"/><circle cx="110" cy="340" r="5" fill="#2dd4bf" opacity="0.8"/><circle cx="130" cy="310" r="5" fill="#2dd4bf" stroke="#2dd4bf" stroke-width="0"/><circle cx="130" cy="310" r="5" fill="#2dd4bf" opacity="0.8"/><circle cx="150" cy="290" r="5" fill="#2dd4bf" stroke="#2dd4bf" stroke-width="0"/><circle cx="150" cy="290" r="5" fill="#2dd4bf" opacity="0.8"/><circle cx="170" cy="265" r="5" fill="#2dd4bf" stroke="#2dd4bf" stroke-width="0"/><circle cx="170" cy="265" r="5" fill="#2dd4bf" opacity="0.8"/><circle cx="185" cy="240" r="5" fill="#2dd4bf" stroke="#2dd4bf" stroke-width="0"/><circle cx="185" cy="240" r="5" fill="#2dd4bf" opacity="0.8"/><circle cx="205" cy="215" r="5" fill="#2dd4bf" stroke="#2dd4bf" stroke-width="0"/><circle cx="205" cy="215" r="5" fill="#2dd4bf" opacity="0.8"/><circle cx="225" cy="190" r="5" fill="#2dd4bf" stroke="#2dd4bf" stroke-width="0"/><circle cx="225" cy="190" r="5" fill="#2dd4bf" opacity="0.8"/><circle cx="240" cy="175" r="5" fill="#2dd4bf" stroke="#2dd4bf" stroke-width="0"/><circle cx="240" cy="175" r="5" fill="#2dd4bf" opacity="0.8"/><circle cx="260" cy="155" r="5" fill="#2dd4bf" stroke="#2dd4bf" stroke-width="0"/><circle cx="260" cy="155" r="5" fill="#2dd4bf" opacity="0.8"/><circle cx="275" cy="140" r="5" fill="#2dd4bf" stroke="#2dd4bf" stroke-width="0"/><circle cx="275" cy="140" r="5" fill="#2dd4bf" opacity="0.8"/><circle cx="420" cy="150" r="5" fill="#f87171" opacity="0.8"/><circle cx="440" cy="165" r="5" fill="#f87171" opacity="0.8"/><circle cx="455" cy="185" r="5" fill="#f87171" opacity="0.8"/><circle cx="475" cy="210" r="5" fill="#f87171" opacity="0.8"/><circle cx="490" cy="235" r="5" fill="#f87171" opacity="0.8"/><circle cx="510" cy="255" r="5" fill="#f87171" opacity="0.8"/><circle cx="525" cy="275" r="5" fill="#f87171" opacity="0.8"/><circle cx="545" cy="295" r="5" fill="#f87171" opacity="0.8"/><circle cx="560" cy="315" r="5" fill="#f87171" opacity="0.8"/><circle cx="575" cy="335" r="5" fill="#f87171" opacity="0.8"/><circle cx="660" cy="160" r="5" fill="#a78bfa" opacity="0.8"/><circle cx="675" cy="280" r="5" fill="#a78bfa" opacity="0.8"/><circle cx="690" cy="200" r="5" fill="#a78bfa" opacity="0.8"/><circle cx="710" cy="320" r="5" fill="#a78bfa" opacity="0.8"/><circle cx="720" cy="180" r="5" fill="#a78bfa" opacity="0.8"/><circle cx="735" cy="260" r="5" fill="#a78bfa" opacity="0.8"/><circle cx="750" cy="310" r="5" fill="#a78bfa" opacity="0.8"/><circle cx="760" cy="190" r="5" fill="#a78bfa" opacity="0.8"/><circle cx="770" cy="240" r="5" fill="#a78bfa" opacity="0.8"/><circle cx="760" cy="350" r="5" fill="#a78bfa" opacity="0.8"/><line x1="100" y1="350" x2="290" y2="130" stroke="#2dd4bf" stroke-width="1.5" stroke-dasharray="4"/><line x1="410" y1="140" x2="590" y2="350" stroke="#f87171" stroke-width="1.5" stroke-dasharray="4"/><text x="190" y="390" fill="#2dd4bf" font-size="13" text-anchor="middle" font-family="monospace" font-weight="normal">Прямая</text><text x="500" y="390" fill="#f87171" font-size="13" text-anchor="middle" font-family="monospace" font-weight="normal">Обратная</text><text x="715" y="390" fill="#a78bfa" font-size="13" text-anchor="middle" font-family="monospace" font-weight="normal">Нет связи</text></svg>