<svg xmlns="http://www.w3.org/2000/svg" viewBox="0 0 800 460" width="800" height="460">
  <rect width="800" height="460" fill="#1e2433" rx="12"/>
  <defs><marker id="arr" markerWidth="10" markerHeight="7" refX="9" refY="3.5" orient="auto"><polygon points="0 0, 10 3.5, 0 7" fill="#94a3b8"/></marker><marker id="arrB" markerWidth="10" markerHeight="7" refX="9" refY="3.5" orient="auto"><polygon points="0 0, 10 3.5, 0 7" fill="#4a9eff"/></marker></defs><text x="400" y="40" font-size="20" fill="#e2e8f0" text-anchor="middle" font-weight="bold" font-family="monospace">Стандартное отклонение σ</text><rect x="155" y="266" width="66" height="14" fill="#f87171" opacity="0.5" rx="4"/><rect x="225" y="238" width="66" height="42" fill="#fbbf24" opacity="0.5" rx="4"/><rect x="295" y="210" width="66" height="70" fill="#34d399" opacity="0.5" rx="4"/><rect x="365" y="196" width="66" height="84" fill="#4a9eff" opacity="0.5" rx="4"/><rect x="435" y="210" width="66" height="70" fill="#34d399" opacity="0.5" rx="4"/><rect x="505" y="238" width="66" height="42" fill="#fbbf24" opacity="0.5" rx="4"/><rect x="575" y="266" width="66" height="14" fill="#f87171" opacity="0.5" rx="4"/><line x1="400" y1="100" x2="400" y2="290" stroke="#e2e8f0" stroke-width="2" stroke-dasharray="6,3"/><text x="400" y="310" font-size="18" fill="#e2e8f0" text-anchor="middle" font-weight="bold" font-family="monospace">x̄</text><path d="M 400 140 L 470 140" stroke="#2dd4bf" stroke-width="2" fill="none"/><path d="M 470 140 L 470 270" stroke="#2dd4bf" stroke-width="2" fill="none"/><text x="510" y="200" font-size="16" fill="#2dd4bf" text-anchor="middle" font-weight="normal" font-family="monospace">+σ</text><path d="M 400 140 L 330 140" stroke="#2dd4bf" stroke-width="2" fill="none"/><path d="M 330 140 L 330 270" stroke="#2dd4bf" stroke-width="2" fill="none"/><text x="290" y="200" font-size="16" fill="#2dd4bf" text-anchor="middle" font-weight="normal" font-family="monospace">−σ</text><rect x="540" y="100" width="220" height="70" fill="#252d3e" stroke="#34d399" stroke-width="1.5" rx="8"/><text x="650" y="126" font-size="18" fill="#34d399" text-anchor="middle" font-weight="bold" font-family="monospace">σ = √D</text><text x="650" y="154" font-size="13" fill="#94a3b8" text-anchor="middle" font-weight="normal" font-family="monospace">Те же единицы,</text><text x="650" y="172" font-size="13" fill="#94a3b8" text-anchor="middle" font-weight="normal" font-family="monospace">что и данные</text><text x="400" y="430" font-size="15" fill="#94a3b8" text-anchor="middle" font-weight="normal" font-family="monospace">68% данных лежат в диапазоне [x̄ − σ, x̄ + σ]</text>
</svg>