<svg xmlns="http://www.w3.org/2000/svg" viewBox="0 0 800 460" width="800" height="460">
  <rect width="800" height="460" fill="#1e2433" rx="12"/>
  <defs><marker id="arr" markerWidth="10" markerHeight="7" refX="9" refY="3.5" orient="auto"><polygon points="0 0, 10 3.5, 0 7" fill="#94a3b8"/></marker><marker id="arrB" markerWidth="10" markerHeight="7" refX="9" refY="3.5" orient="auto"><polygon points="0 0, 10 3.5, 0 7" fill="#4a9eff"/></marker></defs><text x="400" y="30" font-size="20" fill="#e2e8f0" text-anchor="middle" font-weight="bold" font-family="monospace">n вершин → n − 1 рёбер</text><line x1="100" y1="230" x2="200" y2="150" stroke="#94a3b8" stroke-width="2"/><line x1="200" y1="150" x2="300" y2="230" stroke="#94a3b8" stroke-width="2"/><circle cx="100" cy="230" r="18" fill="#252d3e" stroke="#4a9eff" stroke-width="2"/><text x="100" y="235" font-size="12" fill="#4a9eff" text-anchor="middle" font-weight="normal" font-family="monospace">1</text><circle cx="200" cy="150" r="18" fill="#252d3e" stroke="#4a9eff" stroke-width="2"/><text x="200" y="155" font-size="12" fill="#4a9eff" text-anchor="middle" font-weight="normal" font-family="monospace">2</text><circle cx="300" cy="230" r="18" fill="#252d3e" stroke="#4a9eff" stroke-width="2"/><text x="300" y="235" font-size="12" fill="#4a9eff" text-anchor="middle" font-weight="normal" font-family="monospace">3</text><text x="200" y="280" font-size="14" fill="#34d399" text-anchor="middle" font-weight="normal" font-family="monospace">n=3, рёбер=2</text><line x1="430" y1="150" x2="370" y2="250" stroke="#94a3b8" stroke-width="2"/><line x1="430" y1="150" x2="490" y2="250" stroke="#94a3b8" stroke-width="2"/><line x1="490" y1="250" x2="450" y2="350" stroke="#94a3b8" stroke-width="2"/><circle cx="430" cy="150" r="18" fill="#252d3e" stroke="#4a9eff" stroke-width="2"/><text x="430" y="155" font-size="12" fill="#4a9eff" text-anchor="middle" font-weight="normal" font-family="monospace">1</text><circle cx="370" cy="250" r="18" fill="#252d3e" stroke="#4a9eff" stroke-width="2"/><text x="370" y="255" font-size="12" fill="#4a9eff" text-anchor="middle" font-weight="normal" font-family="monospace">2</text><circle cx="490" cy="250" r="18" fill="#252d3e" stroke="#4a9eff" stroke-width="2"/><text x="490" y="255" font-size="12" fill="#4a9eff" text-anchor="middle" font-weight="normal" font-family="monospace">3</text><circle cx="450" cy="350" r="18" fill="#252d3e" stroke="#4a9eff" stroke-width="2"/><text x="450" y="355" font-size="12" fill="#4a9eff" text-anchor="middle" font-weight="normal" font-family="monospace">4</text><text x="435" y="400" font-size="14" fill="#34d399" text-anchor="middle" font-weight="normal" font-family="monospace">n=4, рёбер=3</text><line x1="580" y1="140" x2="520" y2="240" stroke="#94a3b8" stroke-width="2"/><line x1="580" y1="140" x2="640" y2="240" stroke="#94a3b8" stroke-width="2"/><line x1="520" y1="240" x2="490" y2="340" stroke="#94a3b8" stroke-width="2"/><line x1="520" y1="240" x2="560" y2="340" stroke="#94a3b8" stroke-width="2"/><circle cx="580" cy="140" r="18" fill="#252d3e" stroke="#4a9eff" stroke-width="2"/><text x="580" y="145" font-size="12" fill="#4a9eff" text-anchor="middle" font-weight="normal" font-family="monospace">1</text><circle cx="520" cy="240" r="18" fill="#252d3e" stroke="#4a9eff" stroke-width="2"/><text x="520" y="245" font-size="12" fill="#4a9eff" text-anchor="middle" font-weight="normal" font-family="monospace">2</text><circle cx="640" cy="240" r="18" fill="#252d3e" stroke="#4a9eff" stroke-width="2"/><text x="640" y="245" font-size="12" fill="#4a9eff" text-anchor="middle" font-weight="normal" font-family="monospace">3</text><circle cx="490" cy="340" r="18" fill="#252d3e" stroke="#4a9eff" stroke-width="2"/><text x="490" y="345" font-size="12" fill="#4a9eff" text-anchor="middle" font-weight="normal" font-family="monospace">4</text><circle cx="560" cy="340" r="18" fill="#252d3e" stroke="#4a9eff" stroke-width="2"/><text x="560" y="345" font-size="12" fill="#4a9eff" text-anchor="middle" font-weight="normal" font-family="monospace">5</text><text x="558" y="390" font-size="14" fill="#34d399" text-anchor="middle" font-weight="normal" font-family="monospace">n=5, рёбер=4</text><rect x="180" y="330" width="440" height="100" fill="#252d3e" stroke="#f87171" stroke-width="1.5" rx="8"/><text x="400" y="355" font-size="14" fill="#f87171" text-anchor="middle" font-weight="normal" font-family="monospace">Добавим ребро → появится цикл → это уже НЕ дерево!</text><line x1="365" y1="415" x2="435" y2="415" stroke="#f87171" stroke-width="2"/><line x1="435" y1="415" x2="400" y2="370" stroke="#f87171" stroke-width="2"/><line x1="400" y1="370" x2="365" y2="415" stroke="#f87171" stroke-width="2"/><circle cx="365" cy="415" r="12" fill="#252d3e" stroke="#f87171" stroke-width="2"/><circle cx="435" cy="415" r="12" fill="#252d3e" stroke="#f87171" stroke-width="2"/><circle cx="400" cy="370" r="12" fill="#252d3e" stroke="#f87171" stroke-width="2"/>
</svg>