<svg xmlns="http://www.w3.org/2000/svg" viewBox="0 0 800 460" width="800" height="460">
  <rect width="800" height="460" fill="#1e2433" rx="12"/>
  <defs><marker id="arr" markerWidth="10" markerHeight="7" refX="9" refY="3.5" orient="auto"><polygon points="0 0, 10 3.5, 0 7" fill="#94a3b8"/></marker><marker id="arrB" markerWidth="10" markerHeight="7" refX="9" refY="3.5" orient="auto"><polygon points="0 0, 10 3.5, 0 7" fill="#4a9eff"/></marker></defs><text x="400" y="30" font-size="20" fill="#e2e8f0" text-anchor="middle" font-weight="bold" font-family="monospace">Дерево — связный граф без циклов</text><line x1="400" y1="100" x2="220" y2="220" stroke="#94a3b8" stroke-width="2"/><line x1="400" y1="100" x2="580" y2="220" stroke="#94a3b8" stroke-width="2"/><line x1="220" y1="220" x2="130" y2="340" stroke="#94a3b8" stroke-width="2"/><line x1="220" y1="220" x2="310" y2="340" stroke="#94a3b8" stroke-width="2"/><line x1="580" y1="220" x2="490" y2="340" stroke="#94a3b8" stroke-width="2"/><line x1="580" y1="220" x2="670" y2="340" stroke="#94a3b8" stroke-width="2"/><circle cx="400" cy="100" r="22" fill="#252d3e" stroke="#4a9eff" stroke-width="2.5"/><text x="400" y="106" font-size="14" fill="#4a9eff" text-anchor="middle" font-weight="bold" font-family="monospace">v₁</text><circle cx="220" cy="220" r="22" fill="#252d3e" stroke="#2dd4bf" stroke-width="2.5"/><text x="220" y="226" font-size="14" fill="#2dd4bf" text-anchor="middle" font-weight="bold" font-family="monospace">A</text><circle cx="580" cy="220" r="22" fill="#252d3e" stroke="#2dd4bf" stroke-width="2.5"/><text x="580" y="226" font-size="14" fill="#2dd4bf" text-anchor="middle" font-weight="bold" font-family="monospace">B</text><circle cx="130" cy="340" r="22" fill="#252d3e" stroke="#a78bfa" stroke-width="2.5"/><text x="130" y="346" font-size="14" fill="#a78bfa" text-anchor="middle" font-weight="bold" font-family="monospace">A1</text><circle cx="310" cy="340" r="22" fill="#252d3e" stroke="#a78bfa" stroke-width="2.5"/><text x="310" y="346" font-size="14" fill="#a78bfa" text-anchor="middle" font-weight="bold" font-family="monospace">A2</text><circle cx="490" cy="340" r="22" fill="#252d3e" stroke="#a78bfa" stroke-width="2.5"/><text x="490" y="346" font-size="14" fill="#a78bfa" text-anchor="middle" font-weight="bold" font-family="monospace">B1</text><circle cx="670" cy="340" r="22" fill="#252d3e" stroke="#a78bfa" stroke-width="2.5"/><text x="670" y="346" font-size="14" fill="#a78bfa" text-anchor="middle" font-weight="bold" font-family="monospace">B2</text><rect x="30" y="390" width="740" height="50" fill="#252d3e" stroke="#374151" stroke-width="1.5" rx="8"/><text x="400" y="410" font-size="15" fill="#e2e8f0" text-anchor="middle" font-weight="normal" font-family="monospace">7 вершин  →  6 рёбер  (n вершин = n−1 рёбер)</text><text x="400" y="432" font-size="14" fill="#94a3b8" text-anchor="middle" font-weight="normal" font-family="monospace">Нет циклов · Между любыми двумя вершинами — ровно один путь</text>
</svg>