<svg xmlns="http://www.w3.org/2000/svg" viewBox="0 0 800 460"><rect width="800" height="460" fill="#1e2433"/><text x="400" y="35" fill="#8892a4" font-size="14" text-anchor="middle" font-family="monospace" font-weight="normal">Дерево вероятностей: структура</text><text x="400" y="65" fill="#2dd4bf" font-size="15" text-anchor="middle" font-family="monospace" font-weight="bold">Повторение: как работает дерево</text><circle cx="400" cy="120" r="15" fill="#4a9eff"/><text x="400" y="125" fill="#4a9eff" font-size="14" text-anchor="middle" font-family="monospace" font-weight="bold">Ω</text><line x1="400" y1="135" x2="260" y2="190" stroke="#2dd4bf" stroke-width="2"/><circle cx="260" cy="200" r="12" fill="#2dd4bf"/><text x="260" y="204" fill="#1e2433" font-size="13" text-anchor="middle" font-family="monospace" font-weight="bold">A</text><line x1="260" y1="212" x2="200" y2="336" stroke="#34d399" stroke-width="1.5"/><circle cx="200" cy="346" r="10" fill="#34d399"/><text x="200" y="351" fill="#1e2433" font-size="11" text-anchor="middle" font-family="monospace" font-weight="bold">B</text><line x1="260" y1="212" x2="320" y2="336" stroke="#a78bfa" stroke-width="1.5"/><circle cx="320" cy="346" r="10" fill="#a78bfa"/><text x="320" y="351" fill="#1e2433" font-size="11" text-anchor="middle" font-family="monospace" font-weight="bold">B̄</text><line x1="400" y1="135" x2="540" y2="190" stroke="#f87171" stroke-width="2"/><circle cx="540" cy="200" r="12" fill="#f87171"/><text x="540" y="204" fill="#1e2433" font-size="13" text-anchor="middle" font-family="monospace" font-weight="bold">Ā</text><line x1="540" y1="212" x2="480" y2="430" stroke="#34d399" stroke-width="1.5"/><circle cx="480" cy="440" r="10" fill="#34d399"/><text x="480" y="445" fill="#1e2433" font-size="11" text-anchor="middle" font-family="monospace" font-weight="bold">B</text><line x1="540" y1="212" x2="600" y2="430" stroke="#a78bfa" stroke-width="1.5"/><circle cx="600" cy="440" r="10" fill="#a78bfa"/><text x="600" y="445" fill="#1e2433" font-size="11" text-anchor="middle" font-family="monospace" font-weight="bold">B̄</text><text x="400" y="430" fill="#fbbf24" font-size="15" text-anchor="middle" font-family="monospace" font-weight="bold">Σ всех ветвей на уровне = 1</text></svg>